<svg xmlns="http://www.w3.org/2000/svg" viewBox="0 0 446.46 162.26"><defs><style>.cls-1{fill:#4b8;}.cls-2{fill:#fff;}</style></defs><g id="Layer_2" data-name="Layer 2"><g id="Layer_1-2" data-name="Layer 1"><rect class="cls-1" width="162.26" height="162.26" rx="6.49"/><path class="cls-2" d="M45.22,117.64h0a14.74,14.74,0,0,1-7.29-1.78,12.76,12.76,0,0,1-5-5,14.28,14.28,0,0,1-1.83-7.25h0a12.13,12.13,0,0,1,1.15-5.38,8.9,8.9,0,0,1,3.18-3.64,8.41,8.41,0,0,1,4.66-1.31h0a7.42,7.42,0,0,1,4.32,1.35h0A13.38,13.38,0,0,0,41,99.47a15.18,15.18,0,0,0-1.27,6.14h0c0,2.43.49,4.23,1.48,5.43a5.58,5.58,0,0,0,4.53,1.77h0a7.75,7.75,0,0,0,5-1.69,13.11,13.11,0,0,0,3.73-5.72A51.65,51.65,0,0,0,57,94.47q1-6.9,1.48-17.23t.46-24.75h0l9.83-.42L65.63,87.22q-1.35,14.84-6.57,22.63T45.22,117.64Zm9-59.81h0c-1.92,0-3.21-.51-3.86-1.53a6.19,6.19,0,0,1-1-3.38h0a14.58,14.58,0,0,1,.16-2.24c.11-.71.23-1.31.34-1.82h0a50.37,50.37,0,0,0,6.31,1.06c2,.19,4,.29,5.9.29h0a60.3,60.3,0,0,0,9-.68,60.52,60.52,0,0,0,8.9-2h0A9.37,9.37,0,0,1,78,52.41a10.22,10.22,0,0,1-3.47,2.88,13.1,13.1,0,0,1-3.35,1.19h0c-1.36.23-3.1.44-5.22.64s-4.24.36-6.38.5S55.66,57.83,54.19,57.83Zm46.17-1.95L99,51.82a25.13,25.13,0,0,1,7.54-3.09,31.7,31.7,0,0,1,7.1-.9h0a18.67,18.67,0,0,1,9.84,2.38,15,15,0,0,1,5.8,6.19,18.27,18.27,0,0,1,1.91,8.29h0A23.29,23.29,0,0,1,129.63,73,24.34,24.34,0,0,1,125,80.62a22.48,22.48,0,0,1-7.67,5.54,25.07,25.07,0,0,1-10.5,2.09h0c-.8,0-1.57,0-2.33-.08s-1.54-.15-2.33-.26h0l-.25-2.71a25.59,25.59,0,0,0,10-1.69A16.37,16.37,0,0,0,118.2,79a17.71,17.71,0,0,0,3.34-6.09,22.69,22.69,0,0,0,1-6.62h0a13.42,13.42,0,0,0-1.39-6.09,10.68,10.68,0,0,0-4.28-4.49,14.38,14.38,0,0,0-7.37-1.7h0a22,22,0,0,0-4.28.47,32.94,32.94,0,0,0-4.87,1.39ZM86.81,108.74h0a66.07,66.07,0,0,1,.58-7.79c.4-3.16.89-6.66,1.45-10.5s1.12-7.85,1.65-12,1-8.36,1.4-12.54.59-8.16.59-11.94h0a46.37,46.37,0,0,0-.3-5.64,12.77,12.77,0,0,0-.88-3.68h0A9.69,9.69,0,0,1,96,46.4a11.46,11.46,0,0,1,3.51,4.1,13.33,13.33,0,0,1,1.36,6.23h0a70,70,0,0,1-.72,8.89q-.72,5.43-1.7,12.17t-1.69,14.3Q96,99.68,96,107.55h0c0,1.31,0,2.65.08,4a38.29,38.29,0,0,0,.43,4.28h0l-1.27.13c-.34,0-.65,0-.93,0h0a8.25,8.25,0,0,1-5.59-1.7Q86.81,112.64,86.81,108.74Z"/><path class="cls-1" d="M215.11,117.64h0a12.91,12.91,0,0,1-6.32-1.54,11.18,11.18,0,0,1-4.38-4.3,12.39,12.39,0,0,1-1.59-6.3h0a10.44,10.44,0,0,1,1-4.66,7.7,7.7,0,0,1,2.76-3.17,7.26,7.26,0,0,1,4-1.13h0a6.43,6.43,0,0,1,3.74,1.17h0a11.66,11.66,0,0,0-2.94,4.16,13.28,13.28,0,0,0-1.1,5.33h0a7.27,7.27,0,0,0,1.29,4.71,4.83,4.83,0,0,0,3.93,1.54h0a6.77,6.77,0,0,0,4.3-1.47,11.53,11.53,0,0,0,3.24-5,45.88,45.88,0,0,0,2.24-9.49q.88-6,1.29-15t.4-21.47h0l8.53-.37-2.72,30.52q-1.17,12.87-5.7,19.64T215.11,117.64Zm7.79-51.92h0c-1.66,0-2.78-.44-3.35-1.33a5.31,5.31,0,0,1-.83-2.94h0a12.13,12.13,0,0,1,.14-1.94c.09-.61.19-1.14.29-1.58h0a43.53,43.53,0,0,0,5.48.92c1.74.17,3.45.25,5.12.25h0a51.18,51.18,0,0,0,7.79-.59,52.47,52.47,0,0,0,7.72-1.76h0A8.14,8.14,0,0,1,243.61,61a8.93,8.93,0,0,1-3,2.51,11.66,11.66,0,0,1-2.91,1h0c-1.18.2-2.68.38-4.52.55s-3.69.32-5.55.44S224.18,65.72,222.9,65.72Zm40.89,50.38h0A13.25,13.25,0,0,1,258.5,115a14,14,0,0,1-4.82-3.49,17.62,17.62,0,0,1-3.5-6,25.66,25.66,0,0,1-1.31-8.64h0a33.48,33.48,0,0,1,1.79-11.18,25,25,0,0,1,5.15-8.71,21,21,0,0,1,7.83-5.41h0a1.35,1.35,0,0,1,1.14.44,1.7,1.7,0,0,1,.34,1h0a23.74,23.74,0,0,0-4.6,4.26,19.58,19.58,0,0,0-3.65,7.51h0l.52.14a23.25,23.25,0,0,1,5-7.28,17.43,17.43,0,0,1,5.84-3.75,16.66,16.66,0,0,1,5.67-1.1h0a8.92,8.92,0,0,1,5.66,1.91,12.48,12.48,0,0,1,3.79,5.48,24.28,24.28,0,0,1,1.35,8.57h0a40.19,40.19,0,0,1-1.17,9.52,30.29,30.29,0,0,1-3.68,8.87,19.8,19.8,0,0,1-6.47,6.5A17.82,17.82,0,0,1,263.79,116.1Zm.73-4.56h0a8.44,8.44,0,0,0,5.49-2,16,16,0,0,0,4-5.15,29.43,29.43,0,0,0,2.54-7,33.6,33.6,0,0,0,.87-7.49h0c0-4.37-.62-7.54-1.87-9.53a5.56,5.56,0,0,0-4.82-3h0a8.78,8.78,0,0,0-5.4,1.91,19.39,19.39,0,0,0-4.55,5,26.68,26.68,0,0,0-3.17,6.76,24,24,0,0,0-1.14,7.13h0a25.37,25.37,0,0,0,.81,6.52,11.22,11.22,0,0,0,2.58,4.92A6,6,0,0,0,264.52,111.54ZM305.27,86l.59.15a24.58,24.58,0,0,1,6.06-10.08,11.9,11.9,0,0,1,8.28-3.52h0a8.66,8.66,0,0,1,5.4,2,14.54,14.54,0,0,1,4.16,5.55,20.37,20.37,0,0,1,1.61,8.42h0a35.11,35.11,0,0,1-1.43,10.22,27.85,27.85,0,0,1-4,8.23,19.34,19.34,0,0,1-5.93,5.52,14.18,14.18,0,0,1-7.35,2h0a13.12,13.12,0,0,1-2.13-.18,21.25,21.25,0,0,1-2.21-.48h0a14.12,14.12,0,0,0,6.59-3.57,23.87,23.87,0,0,0,4.71-6.29,34,34,0,0,0,2.82-7.5,30.25,30.25,0,0,0,.95-7.21h0a17.91,17.91,0,0,0-.58-4.52,8.68,8.68,0,0,0-2-3.75A4.93,4.93,0,0,0,317,79.47h0a6.82,6.82,0,0,0-4.74,2.25,22.46,22.46,0,0,0-4.23,6A38.86,38.86,0,0,0,305,96.35a42.8,42.8,0,0,0-1.14,9.89h0a38.74,38.74,0,0,0,.33,5,31.76,31.76,0,0,0,1.07,5h0a10.85,10.85,0,0,1-4.49-2.94,13.72,13.72,0,0,1-2.91-5.23,23.52,23.52,0,0,1-1-7.06h0a70.22,70.22,0,0,1,.74-9.74q.74-5.34,1.72-11.29t1.74-12.32a111.53,111.53,0,0,0,.73-12.82h0q0-2.58-.15-5.19c-.1-1.75-.27-3.45-.51-5.11h0a9.2,9.2,0,0,1,4.44,3.13,12.48,12.48,0,0,1,2.21,5,28.33,28.33,0,0,1,.63,6.1h0a55.3,55.3,0,0,1-.55,7.06c-.37,2.79-.8,5.9-1.29,9.3s-.93,7-1.32,10.85ZM355.5,64l-1.19-3.53a22.1,22.1,0,0,1,6.55-2.68A27.63,27.63,0,0,1,367,57h0a16.14,16.14,0,0,1,8.52,2.06,13.07,13.07,0,0,1,5,5.38,15.87,15.87,0,0,1,1.65,7.2h0a20.48,20.48,0,0,1-1.35,7.21,21.22,21.22,0,0,1-4,6.62,19.79,19.79,0,0,1-6.65,4.81,21.89,21.89,0,0,1-9.12,1.8h0c-.69,0-1.36,0-2-.07s-1.33-.13-2-.22h0l-.23-2.35A22.27,22.27,0,0,0,365.49,88a14.16,14.16,0,0,0,5.48-3.9,15.32,15.32,0,0,0,2.91-5.29,19.43,19.43,0,0,0,.88-5.74h0a11.6,11.6,0,0,0-1.22-5.29,9.24,9.24,0,0,0-3.71-3.91,12.48,12.48,0,0,0-6.4-1.47h0a19.1,19.1,0,0,0-3.71.41A28.73,28.73,0,0,0,355.5,64Zm-11.77,45.89h0a57.23,57.23,0,0,1,.51-6.77q.51-4.11,1.25-9.12t1.44-10.43q.69-5.44,1.21-10.89t.51-10.37h0a41.19,41.19,0,0,0-.25-4.89,10.78,10.78,0,0,0-.78-3.2h0a8.55,8.55,0,0,1,4.09,1.54,10.17,10.17,0,0,1,3.05,3.57,11.57,11.57,0,0,1,1.17,5.4h0a60,60,0,0,1-.62,7.72q-.63,4.71-1.47,10.56t-1.47,12.42q-.63,6.6-.63,13.42h0c0,1.13,0,2.3.08,3.5a33,33,0,0,0,.37,3.72h0l-1.11.11-.81,0h0a7.2,7.2,0,0,1-4.86-1.47Q343.73,113.3,343.73,109.92Zm69.71-7.29-.51-.14a22.34,22.34,0,0,1-4,6.87,20.17,20.17,0,0,1-5.8,4.78,13.52,13.52,0,0,1-6.52,1.73h0a8.93,8.93,0,0,1-7.68-3.82q-2.75-3.83-2.75-10.73h0a33.46,33.46,0,0,1,1.58-10.41,28.91,28.91,0,0,1,4.34-8.57,21,21,0,0,1,6.43-5.77,15.64,15.64,0,0,1,7.87-2.09h0a14.68,14.68,0,0,1,2.64.25,30.15,30.15,0,0,1,3.17.78h0a20.91,20.91,0,0,0-7.32,3.31,24,24,0,0,0-5.73,5.65,26.41,26.41,0,0,0-3.72,7.36,27.29,27.29,0,0,0-1.32,8.53h0a12.76,12.76,0,0,0,1.54,6.87,5,5,0,0,0,4.42,2.39h0a8.59,8.59,0,0,0,5.73-2.39,23.17,23.17,0,0,0,4.93-6.47,38.2,38.2,0,0,0,3.45-9.26,45.49,45.49,0,0,0,1.26-10.77h0c0-1.28-.05-2.59-.16-3.94a31.51,31.51,0,0,0-.43-3.57h0c.49,0,.93-.08,1.32-.1s.76,0,1.11,0h0a6.29,6.29,0,0,1,4.59,1.54,6,6,0,0,1,1.58,4.48h0a29.93,29.93,0,0,1-.52,4.94c-.34,2-.74,4.26-1.21,6.76s-.88,5.12-1.25,7.87a62.84,62.84,0,0,0-.55,8.16h0a25.37,25.37,0,0,0,.51,5.45,30.34,30.34,0,0,0,1.77,5.14h0q-4.71-1-6.76-4.12T413.36,104h0v-.84a2.36,2.36,0,0,1,.08-.56Zm21.48,3.76h0a65.69,65.69,0,0,1,.51-6.91c.34-3,.75-6.38,1.24-10.15s1-7.7,1.44-11.77.87-8,1.22-11.84.51-7.23.51-10.22h0c0-2-.08-3.76-.23-5.26A12.93,12.93,0,0,0,439,46.9h0a11.81,11.81,0,0,1,4.44,2.72,9.58,9.58,0,0,1,2.36,4.19,22.1,22.1,0,0,1,.7,6h0a74.76,74.76,0,0,1-.67,8.82q-.66,5.44-1.47,12.21t-1.47,14.11q-.66,7.36-.66,14.57h0c0,1.13,0,2.24.11,3.35s.14,2.19.18,3.27h0a11.63,11.63,0,0,1-4.26-.88,4.84,4.84,0,0,1-2.24-2,7.66,7.66,0,0,1-.88-3A37.51,37.51,0,0,1,434.92,106.39Z"/></g></g></svg>